<svg viewBox="0 0 24 24" fill="currentColor" xmlns="http://www.w3.org/2000/svg">
<path d="M1.14846 -0.0234375C1.33596 -0.0234375 1.52346 -0.0234375 1.71096 -0.0234375C2.32087 0.285499 2.92243 0.613627 3.51565 0.960938C3.74583 1.34156 3.70677 1.69312 3.39846 2.01562C3.24219 2.09747 3.07813 2.15216 2.90627 2.17969C2.19203 1.9046 1.51234 1.56084 0.867207 1.14844C0.605007 0.664744 0.698757 0.274117 1.14846 -0.0234375Z" />
<path fill-rule="evenodd" d="M8.08593 -0.0234375C8.44532 -0.0234375 8.80466 -0.0234375 9.16405 -0.0234375C9.59244 0.0731461 9.99866 0.237209 10.3828 0.46875C10.9212 0.968016 11.4524 1.47583 11.9766 1.99219C12.5007 1.47583 13.0319 0.968016 13.5703 0.46875C13.9544 0.237209 14.3607 0.0731461 14.7891 -0.0234375C15.1484 -0.0234375 15.5078 -0.0234375 15.8672 -0.0234375C17.7447 0.520303 18.565 1.7703 18.3281 3.72656C18.2163 4.1689 18.0288 4.57515 17.7656 4.94531C15.9765 6.73439 14.1875 8.52342 12.3984 10.3125C12.1172 10.4687 11.8359 10.4687 11.5547 10.3125C9.7656 8.52342 7.97657 6.73439 6.18749 4.94531C5.45783 3.87468 5.36408 2.74968 5.90624 1.57031C6.40405 0.723975 7.13062 0.192723 8.08593 -0.0234375ZM8.60155 1.38281C9.00023 1.40894 9.35962 1.54175 9.67968 1.78125C10.2891 2.39062 10.8984 3 11.5078 3.60938C11.8203 3.82813 12.1328 3.82813 12.4453 3.60938C13.0547 3 13.6641 2.39062 14.2734 1.78125C15.1396 1.21069 15.9287 1.31226 16.6406 2.08594C17.0589 2.75122 17.0433 3.40747 16.5937 4.05469C15.0619 5.59439 13.5228 7.12566 11.9766 8.64844C10.4303 7.12566 8.89124 5.59439 7.35937 4.05469C6.79874 3.16442 6.91593 2.37536 7.71093 1.6875C7.99176 1.52015 8.28862 1.41859 8.60155 1.38281Z" />
<path d="M22.2422 -0.0234375C22.4297 -0.0234375 22.6172 -0.0234375 22.8047 -0.0234375C23.2535 0.275567 23.3472 0.666192 23.0859 1.14844C22.4408 1.56084 21.7611 1.9046 21.0469 2.17969C20.5718 2.14212 20.314 1.8843 20.2734 1.40625C20.3002 1.24762 20.355 1.09919 20.4375 0.960938C21.0307 0.613627 21.6323 0.285499 22.2422 -0.0234375Z" />
<path d="M2.74216 5.22656C3.51704 5.24297 3.79048 5.61797 3.56248 6.35156C3.49216 6.42188 3.42185 6.49219 3.35154 6.5625C2.82029 6.82814 2.28904 7.09373 1.75779 7.35938C1.00768 7.51561 0.671737 7.21092 0.749976 6.44531C0.799701 6.30178 0.885637 6.18459 1.00779 6.09375C1.59022 5.80252 2.16834 5.51348 2.74216 5.22656Z" />
<path d="M20.8359 5.22656C21.0128 5.21545 21.1847 5.23888 21.3516 5.29687C21.8828 5.56251 22.4141 5.8281 22.9453 6.09374C23.252 6.40303 23.3067 6.75459 23.1094 7.14843C22.9027 7.38398 22.6449 7.4699 22.3359 7.40624C21.7521 7.13774 21.1739 6.85649 20.6016 6.56249C20.2752 6.28035 20.2049 5.94445 20.3906 5.55468C20.5092 5.39601 20.6576 5.28665 20.8359 5.22656Z" />
<path fill-rule="evenodd" d="M23.9766 17.0391C23.9766 19.2109 23.9766 21.3828 23.9766 23.5547C23.9154 23.6244 23.8608 23.7025 23.8125 23.7891C23.718 23.8452 23.6321 23.9077 23.5547 23.9766C15.8359 23.9766 8.1172 23.9766 0.398438 23.9766C0.328738 23.9154 0.250613 23.8608 0.164062 23.8125C0.107973 23.718 0.0454726 23.6321 -0.0234375 23.5547C-0.0234375 21.3828 -0.0234375 19.2109 -0.0234375 17.0391C0.119125 16.4655 0.431625 16.0045 0.914062 15.6562C1.68452 15.3022 2.46578 14.9741 3.25781 14.6719C2.18022 14.0557 1.71928 13.126 1.875 11.8828C2.20577 10.5367 3.06514 9.81797 4.45312 9.72656C6.06206 9.88237 6.92925 10.7652 7.05469 12.375C7.01437 13.4097 6.54562 14.1753 5.64844 14.6719C6.30469 14.9375 6.96094 15.2031 7.61719 15.4688C8.50406 15.9218 8.94159 16.6484 8.92969 17.6484C9.54952 17.4323 10.1589 17.1901 10.7578 16.9219C9.67678 16.283 9.23147 15.3377 9.42188 14.0859C9.76514 12.7659 10.6167 12.0784 11.9766 12.0234C13.3365 12.0784 14.188 12.7659 14.5312 14.0859C14.7217 15.3377 14.2763 16.283 13.1953 16.9219C13.7942 17.1901 14.4036 17.4323 15.0234 17.6484C15.0115 16.6484 15.4491 15.9218 16.3359 15.4688C16.9959 15.2123 17.6522 14.9467 18.3047 14.6719C17.1944 14.0056 16.7491 13.0291 16.9688 11.7422C17.3526 10.4995 18.1964 9.82762 19.5 9.72656C21.3302 9.94964 22.1895 10.9809 22.0781 12.8203C21.9017 13.6526 21.4408 14.2698 20.6953 14.6719C21.4874 14.9741 22.2686 15.3022 23.0391 15.6562C23.5215 16.0045 23.834 16.4655 23.9766 17.0391ZM4.33594 11.1797C5.19225 11.2623 5.6063 11.7311 5.57812 12.5859C5.33423 13.3053 4.84205 13.5944 4.10156 13.4531C3.26775 13.0296 3.08806 12.4124 3.5625 11.6016C3.78767 11.3915 4.04549 11.2508 4.33594 11.1797ZM19.3828 11.1797C20.3616 11.2783 20.76 11.8095 20.5781 12.7734C20.18 13.4999 19.6097 13.6795 18.8672 13.3125C18.1797 12.6719 18.1797 12.0313 18.8672 11.3906C19.0386 11.3052 19.2105 11.2349 19.3828 11.1797ZM11.6953 13.4766C12.5375 13.4127 13.0219 13.7955 13.1484 14.625C13.0181 15.3964 12.565 15.7714 11.7891 15.75C10.9291 15.4598 10.6557 14.8895 10.9688 14.0391C11.1572 13.7775 11.3993 13.59 11.6953 13.4766ZM4.38281 15.7266C5.2995 16.1131 6.22139 16.4959 7.14844 16.875C7.25198 16.9628 7.33791 17.0644 7.40625 17.1797C7.47572 18.9737 7.49916 20.7705 7.47656 22.5703C5.44533 22.5703 3.41406 22.5703 1.38281 22.5703C1.36083 20.8028 1.38427 19.0372 1.45312 17.2734C1.51875 17.114 1.6203 16.9811 1.75781 16.875C2.51811 16.5495 3.28373 16.237 4.05469 15.9375C4.18306 15.8894 4.29244 15.8191 4.38281 15.7266ZM19.4297 15.7266C20.3486 16.1077 21.2705 16.4905 22.1953 16.875C22.3328 16.9811 22.4344 17.114 22.5 17.2734C22.5689 19.0372 22.5923 20.8028 22.5703 22.5703C20.5391 22.5703 18.5078 22.5703 16.4766 22.5703C16.454 20.7705 16.4774 18.9737 16.5469 17.1797C16.6152 17.0644 16.7011 16.9628 16.8047 16.875C17.5337 16.5652 18.2681 16.2683 19.0078 15.9844C19.1671 15.9208 19.3077 15.8348 19.4297 15.7266ZM11.9297 17.9766C12.73 18.3347 13.5425 18.6706 14.3672 18.9844C14.7254 19.0769 14.9363 19.3035 15 19.6641C15.0234 20.6327 15.0313 21.6015 15.0234 22.5703C12.9922 22.5703 10.9609 22.5703 8.92969 22.5703C8.92186 21.5858 8.92969 20.6014 8.95312 19.6172C9.03783 19.2825 9.24877 19.0716 9.58594 18.9844C10.2578 18.7187 10.9297 18.4531 11.6016 18.1875C11.73 18.1394 11.8393 18.0691 11.9297 17.9766Z" />
</svg>
