<svg viewBox="0 0 20 20" fill="none" xmlns="http://www.w3.org/2000/svg">
<path d="M0.629078 0.0609798C0.285234 0.18214 0 0.59252 0 0.971634C0 1.0498 0.0273512 1.20223 0.0625171 1.30775C0.121127 1.48363 0.476692 1.85102 4.37229 5.75159L8.61563 10L4.38792 14.2328C2.06697 16.5583 0.132849 18.5203 0.0976829 18.5945C-0.0781463 18.9463 0.00390732 19.427 0.293049 19.7123C0.562654 19.9859 0.929941 20.068 1.31286 19.9429C1.48869 19.8843 1.85598 19.5286 5.75157 15.632L10.0027 11.3875L14.2539 15.632C18.1495 19.5286 18.5168 19.8843 18.6926 19.9429C19.0755 20.068 19.4428 19.9859 19.7124 19.7123C19.9859 19.4427 20.068 19.0753 19.9429 18.6922C19.8843 18.5164 19.5288 18.149 15.6332 14.2484L11.3898 10L15.6332 5.74768C19.5288 1.85102 19.8843 1.48363 19.9429 1.30775C20.068 0.924734 19.9859 0.557346 19.7124 0.287666C19.4428 0.01408 19.0755 -0.0679951 18.6926 0.0570717C18.5168 0.115698 18.1495 0.471361 14.25 4.36802L10.0027 8.61252L5.75157 4.36802C1.85598 0.471361 1.48869 0.115698 1.31286 0.0570717C1.07451 -0.0210953 0.855702 -0.0171871 0.629078 0.0609798Z" fill="black"/>
</svg>
