<svg viewBox="0 0 24 24" fill="currentColor" xmlns="http://www.w3.org/2000/svg">
<path d="M10.9232 0.0468816C8.64407 0.267226 6.59475 1.07828 4.68611 2.50348C4.11398 2.93011 2.92753 4.11621 2.50079 4.68817C1.26744 6.33372 0.512424 8.04958 0.184157 9.93892C-0.397345 13.2722 0.404565 16.5117 2.50079 19.3153C2.92753 19.8872 4.11398 21.0733 4.68611 21.4999C7.49045 23.5956 10.7309 24.3972 14.0652 23.8159C15.9551 23.4877 17.6714 22.7329 19.3174 21.4999C19.8896 21.0733 21.076 19.8872 21.5028 19.3153C22.7361 17.6697 23.4911 15.9538 23.8194 14.0645C24.4009 10.7359 23.5662 7.38387 21.4887 4.68348L21.1464 4.2381V2.40034C21.1464 0.646967 21.1417 0.548516 21.0526 0.375053C20.9447 0.164086 20.6774 -8.36117e-08 20.4429 -8.36117e-08C20.2319 -8.36117e-08 19.9412 0.164086 19.8474 0.342236C19.777 0.468817 19.7583 0.661032 19.7395 1.65492L19.7161 2.82228L19.3409 2.53161C17.6996 1.25174 15.8378 0.45944 13.7135 0.135957C13.0241 0.0281289 11.5657 -0.0187528 10.9232 0.0468816ZM13.6666 1.54241C15.8425 1.90808 17.723 2.84572 19.355 4.37875L19.7395 4.74443V8.92627V13.1034L18.5296 14.313L17.3244 15.5178L17.0196 15.2131C16.6819 14.8756 16.4803 14.7818 16.1895 14.8334C16.0348 14.8662 15.8144 15.0631 14.3794 16.493C12.6396 18.2276 12.6114 18.2651 12.6818 18.6402C12.7052 18.7714 12.7943 18.9027 13.0382 19.1512L13.3617 19.484L13.0991 19.7419C12.6724 20.1544 12.5692 20.4545 12.7333 20.7967C12.8975 21.139 13.3289 21.2843 13.6713 21.1061C13.7697 21.0546 13.9714 20.8952 14.1074 20.7498L14.3653 20.4873L14.6983 20.8108C15.0687 21.1718 15.2516 21.2421 15.5564 21.153C15.8097 21.0733 18.9657 17.9088 19.0126 17.6838C19.0736 17.379 19.0032 17.2103 18.6609 16.854L18.3373 16.5211L19.627 15.2365C20.3351 14.5286 20.9635 13.8723 21.0197 13.7832L21.1229 13.6191L21.1464 10.1499L21.1698 6.68064L21.484 7.31354C23.3692 11.0875 22.8205 15.5741 20.0771 18.8464C18.3373 20.9233 15.6971 22.2969 12.9631 22.5501C10.1588 22.8079 7.35445 21.9172 5.15506 20.0747C3.0776 18.3354 1.70356 15.696 1.45033 12.9628C1.19241 10.1593 2.08342 7.35574 3.9264 5.15698C5.63808 3.11294 8.25953 1.72993 10.9466 1.45333C11.5985 1.3877 13.0147 1.43458 13.6666 1.54241ZM16.3537 18.5042L15.3548 19.5028L14.853 19.0011L14.3465 18.4948L15.3407 17.5009L16.3396 16.5024L16.8414 17.004L17.3478 17.5103L16.3537 18.5042Z" />
<path d="M11.1811 4.3178C8.16102 4.63191 5.60054 6.72283 4.64387 9.64356C4.44691 10.2483 4.36719 10.6609 4.30154 11.4251C4.24526 12.0767 4.24995 12.1002 4.34843 12.3064C4.52194 12.6674 4.92524 12.7987 5.29572 12.6112C5.53488 12.4893 5.67088 12.2314 5.67088 11.8986C5.67557 11.5001 5.7975 10.6984 5.92411 10.2624C6.53375 8.17616 8.17509 6.5353 10.2619 5.92584C10.6981 5.79926 11.5 5.67737 11.8986 5.67268C12.3582 5.67268 12.7052 5.36795 12.7052 4.96945C12.7052 4.73504 12.541 4.46782 12.33 4.35999C12.1284 4.25685 11.8564 4.24748 11.1811 4.3178Z" />
<path d="M11.5563 8.51373C11.5047 8.5231 11.3452 8.55592 11.2045 8.58405C10.1869 8.79033 9.19273 9.6342 8.7566 10.6656C8.56433 11.1203 8.50806 11.4251 8.50806 12.0017C8.50806 12.5784 8.56433 12.8831 8.7566 13.3379C9.19273 14.3646 10.1166 15.1522 11.2045 15.4288C11.5375 15.5132 12.466 15.5132 12.799 15.4288C13.8869 15.1522 14.8108 14.3646 15.2469 13.3379C15.4392 12.8831 15.4955 12.5784 15.4955 12.0017C15.4955 11.697 15.4673 11.3501 15.4298 11.2047C15.1109 9.94362 14.1308 8.94504 12.8693 8.59342C12.6302 8.52779 11.7298 8.47153 11.5563 8.51373ZM12.3816 9.93893C13.4836 10.1499 14.2527 11.2282 14.0745 12.3111C13.9245 13.23 13.2304 13.9239 12.3113 14.0739C10.956 14.2989 9.70389 13.0472 9.92898 11.6923C10.1259 10.5109 11.228 9.72327 12.3816 9.93893Z" />
<path d="M11.6641 11.3969C11.4625 11.5001 11.2983 11.7767 11.2983 12.0017C11.2983 12.2361 11.4625 12.5033 11.6735 12.6112C11.772 12.6627 11.922 12.7049 12.0018 12.7049C12.3582 12.7049 12.7052 12.358 12.7052 12.0017C12.7052 11.7673 12.5411 11.5001 12.33 11.3922C12.1002 11.275 11.8892 11.275 11.6641 11.3969Z" fill="white"/>
</svg>
