<svg viewBox="0 0 24 24" fill="currentColor" xmlns="http://www.w3.org/2000/svg">
<path d="M13.8238 0.0196098C13.7863 0.033686 11.7839 0.812571 9.37351 1.75099C6.12843 3.01316 4.96077 3.48706 4.86229 3.5809C4.78726 3.65597 4.70285 3.78735 4.6794 3.8765C4.65127 3.98442 4.63251 5.93163 4.63251 9.1504C4.63251 11.961 4.61844 14.2507 4.59968 14.2413C3.90096 13.8847 3.59146 13.8143 2.92556 13.8378C2.0627 13.8753 1.46715 14.1334 0.852834 14.7481C0.149421 15.4472 -0.141323 16.4325 0.0650115 17.4272C0.308861 18.619 1.04979 19.4214 2.20339 19.7404C2.61606 19.853 3.34292 19.8671 3.76496 19.7639C4.62313 19.5621 5.32654 19.0038 5.71107 18.2249C6.04871 17.5398 6.03933 17.7135 6.03933 12.6225C6.03933 8.32459 6.04402 8.05715 6.12374 8.01492C6.21284 7.968 13.2517 5.28882 13.2845 5.28882C13.2986 5.28882 13.3079 6.42899 13.3079 7.82254C13.3079 9.21609 13.2986 10.3563 13.2845 10.3563C13.2751 10.3563 13.1954 10.314 13.111 10.2624C12.778 10.056 12.2341 9.92459 11.737 9.9199C10.8647 9.9199 10.166 10.2108 9.52826 10.8442C8.9374 11.4354 8.66541 12.083 8.66541 12.89C8.6701 14.0865 9.26566 15.114 10.2457 15.602C10.7803 15.8648 11.2211 15.9586 11.8495 15.9305C12.9422 15.8835 13.8519 15.3205 14.3255 14.4055C14.7195 13.6548 14.6866 14.2788 14.7007 6.99674L14.7148 0.521663L14.6116 0.362132C14.5506 0.277674 14.4475 0.165064 14.3818 0.118144C14.2552 0.0243019 13.9457 -0.0320031 13.8238 0.0196098ZM13.3079 2.74571V3.76389L9.7346 5.12459C7.77442 5.87533 6.13781 6.48999 6.1003 6.49937C6.04871 6.51345 6.03933 6.33515 6.03933 5.5375V4.55685L9.66426 3.14454C11.6526 2.36565 13.2892 1.72753 13.2986 1.72753C13.3032 1.72283 13.3079 2.18266 13.3079 2.74571ZM12.3747 11.473C12.7218 11.6419 12.9609 11.8812 13.1297 12.2237C13.2657 12.5005 13.2845 12.5803 13.2845 12.9369C13.2845 13.4343 13.1485 13.7627 12.7968 14.1052C12.4779 14.4149 12.1356 14.5463 11.6573 14.5463C11.3478 14.551 11.2587 14.5275 10.9914 14.3961C10.2504 14.0302 9.90342 13.2325 10.1426 12.4302C10.2739 11.9938 10.6678 11.5856 11.1133 11.4261C11.4556 11.3041 12.0746 11.3275 12.3747 11.473ZM3.704 15.3627C4.0135 15.5035 4.3277 15.8132 4.47307 16.1181C4.65127 16.4982 4.6794 17.0378 4.53872 17.4038C4.39804 17.7838 4.0604 18.1404 3.68524 18.314C3.27258 18.497 2.76143 18.5064 2.3769 18.3234C2.00643 18.1545 1.7532 17.9058 1.57501 17.5445C1.43901 17.2771 1.42025 17.1832 1.42025 16.8783C1.42025 16.6859 1.44839 16.4372 1.48122 16.3293C1.61721 15.8695 2.02988 15.4613 2.51758 15.3064C2.82239 15.2079 3.41795 15.236 3.704 15.3627Z" />
<path d="M19.8825 10.4454C18.124 11.1305 16.6374 11.7217 16.5858 11.7545C16.5343 11.7874 16.4545 11.8812 16.403 11.9657C16.3139 12.1111 16.3092 12.219 16.3092 15.7709C16.3092 19.229 16.3045 19.4214 16.2295 19.3979C15.6104 19.2055 15.2025 19.1774 14.7382 19.2947C13.5565 19.6044 12.778 20.7258 12.9375 21.8894C13.1016 23.0624 13.8378 23.8038 15.0008 23.9774C15.9387 24.1135 16.9469 23.6208 17.3737 22.8137C17.6972 22.1944 17.6879 22.3305 17.716 19.0179L17.7394 16.0196L20.1686 15.0953L22.593 14.1709V15.3815V16.5874L22.3257 16.4935C21.9505 16.3574 21.3269 16.3621 20.9001 16.4982C19.906 16.8126 19.2166 17.7322 19.2166 18.7269C19.2213 20.1205 20.2248 21.1481 21.5848 21.1481C22.3069 21.1481 22.8791 20.9088 23.3386 20.4161C23.4887 20.2566 23.6716 20.0032 23.7419 19.8577C23.9998 19.3088 23.9998 19.3557 23.9998 14.3445C23.9998 9.18794 24.0186 9.52108 23.6763 9.29117C23.3668 9.08471 23.3433 9.08941 19.8825 10.4454ZM22.5836 11.7967L22.5695 12.6742L20.1545 13.5938L17.7394 14.5135L17.7254 13.6736C17.7207 13.2091 17.7254 12.8196 17.7348 12.8102C17.7582 12.7821 22.5086 10.9287 22.5602 10.924C22.5789 10.9193 22.5883 11.3135 22.5836 11.7967ZM22.1663 17.9715C22.3023 18.0654 22.4007 18.178 22.4805 18.3469C22.6305 18.6706 22.6258 18.9099 22.4664 19.229C21.9974 20.1533 20.6188 19.8061 20.6234 18.7692C20.6234 18.5111 20.7454 18.2155 20.9095 18.0701C21.1393 17.8636 21.2893 17.8167 21.6364 17.8261C21.9083 17.8401 22.0021 17.8636 22.1663 17.9715ZM15.6104 20.6835C16.3842 20.9463 16.5202 21.9645 15.8496 22.4384C15.6667 22.5651 15.6058 22.5791 15.3056 22.5791C15.0149 22.5791 14.9399 22.5604 14.771 22.4525C14.0911 22.002 14.213 20.9557 14.9727 20.6882C15.165 20.6225 15.4182 20.6225 15.6104 20.6835Z" />
</svg>
