<svg viewBox="0 0 24 24" fill="currentColor" xmlns="http://www.w3.org/2000/svg">
<path d="M4.96875 0C10.6148 0 16.2609 0 22.0781 0C22.0781 5.25937 22.0781 10.5188 22.0781 15.9375C17.8088 15.9375 13.5394 15.9375 9.14062 15.9375C9.12516 16.0767 9.10969 16.2159 9.09375 16.3594C9.07707 16.4453 9.05875 16.5309 9.0379 16.6159C9.0285 16.6548 9.0191 16.6937 9.00942 16.7338C8.99761 16.7814 8.9858 16.8289 8.97363 16.8779C8.93593 17.0317 8.89822 17.1854 8.85938 17.3438C9.38531 17.3438 9.91125 17.3438 10.4531 17.3438C10.4531 19.5403 10.4531 21.7369 10.4531 24C7.63781 24 4.8225 24 1.92188 24C1.92188 21.8034 1.92188 19.6069 1.92188 17.3438C2.46328 17.3438 3.00469 17.3438 3.5625 17.3438C3.51249 17.1313 3.51249 17.1313 3.46146 16.9145C3.35087 16.4447 3.2403 15.9749 3.12974 15.5051C3.06275 15.2205 2.99576 14.9359 2.92876 14.6512C2.86401 14.3762 2.79927 14.1011 2.73455 13.8261C2.70994 13.7215 2.68533 13.617 2.66071 13.5124C2.64891 13.4623 2.63711 13.4122 2.62496 13.3605C2.60778 13.2876 2.60778 13.2876 2.59026 13.2131C2.55801 13.076 2.52587 12.9388 2.49374 12.8017C2.45974 12.6566 2.42531 12.5116 2.39015 12.3668C2.37721 12.3129 2.36428 12.2589 2.35095 12.2034C2.33489 12.1376 2.33489 12.1376 2.3185 12.0705C2.29688 11.9531 2.29688 11.9531 2.29688 11.7188C2.73 11.7033 3.16312 11.6878 3.60938 11.6719C3.53203 11.5172 3.45469 11.3625 3.375 11.2031C3.323 11.0627 3.323 11.0627 3.29297 10.9482C3.28258 10.9106 3.27218 10.873 3.26147 10.8342C3.04585 9.66715 3.06958 8.25505 3.75018 7.24805C4.08182 6.81193 4.44386 6.57541 4.92188 6.28125C4.93734 4.20844 4.95281 2.13563 4.96875 0ZM6.42188 1.40625C6.42188 2.93766 6.42188 4.46906 6.42188 6.04688C6.65391 6.09328 6.88594 6.13969 7.125 6.1875C7.35012 6.27424 7.56622 6.36123 7.78125 6.46875C7.78125 5.26219 7.78125 4.05562 7.78125 2.8125C11.5711 2.8125 15.3609 2.8125 19.2656 2.8125C19.2656 6.21562 19.2656 9.61875 19.2656 13.125C16.1409 13.125 13.0163 13.125 9.79688 13.125C9.6025 13.822 9.6025 13.822 9.51562 14.5312C13.1817 14.5312 16.8478 14.5312 20.625 14.5312C20.625 10.2 20.625 5.86875 20.625 1.40625C15.938 1.40625 11.2509 1.40625 6.42188 1.40625ZM9.23438 4.21875C9.23438 5.56453 9.23438 6.91031 9.23438 8.29688C9.39944 8.23085 9.54509 8.16596 9.69983 8.08209C9.74435 8.05799 9.78887 8.03389 9.83474 8.00906C9.88219 7.98319 9.92963 7.95732 9.97852 7.93066C10.0276 7.90407 10.0767 7.87748 10.1273 7.85007C10.3876 7.70852 10.6461 7.56448 10.9026 7.41632C10.9761 7.37402 10.9761 7.37402 11.0511 7.33087C11.1454 7.27636 11.2394 7.22143 11.3332 7.16605C11.3757 7.14151 11.4181 7.11696 11.4619 7.09167C11.4991 7.06978 11.5364 7.04788 11.5748 7.02532C11.6719 6.98438 11.6719 6.98438 11.8125 7.03125C11.8856 7.12256 11.9519 7.21312 12.0176 7.30957C12.0596 7.36984 12.1017 7.43008 12.1437 7.4903C12.166 7.5224 12.1883 7.55451 12.2113 7.58759C12.3313 7.75903 12.4543 7.92824 12.5771 8.09766C12.629 8.16931 12.6808 8.24096 12.7326 8.31262C12.7326 8.31262 12.7846 8.3845 12.8114 8.42152C12.8911 8.53186 12.9706 8.64232 13.0501 8.75281C13.3367 9.15084 13.6254 9.54678 13.9219 9.9375C14.1003 9.90762 14.2201 9.8249 14.3681 9.72345C14.418 9.68948 14.4679 9.65552 14.5193 9.62052C14.5696 9.58591 14.62 9.55129 14.6719 9.51562C14.7619 9.45462 14.8519 9.39365 14.942 9.3327C15.0346 9.26968 15.1272 9.20663 15.2197 9.14355C15.2962 9.0915 15.3727 9.03945 15.4491 8.98739C15.5016 8.95167 15.5541 8.91595 15.6065 8.88022C15.7889 8.75603 15.9714 8.63198 16.1539 8.508C16.5901 8.21173 17.0262 7.91544 17.4609 7.61719C17.5073 7.58548 17.5073 7.58548 17.5545 7.55312C17.6897 7.46398 17.6897 7.46398 17.8125 7.35938C17.8125 6.32297 17.8125 5.28656 17.8125 4.21875C14.9817 4.21875 12.1509 4.21875 9.23438 4.21875ZM5.1438 7.8739C4.67126 8.3692 4.63222 8.92109 4.63184 9.57715C4.63126 9.62763 4.63069 9.67812 4.6301 9.73013C4.62911 10.2721 4.69267 10.7929 5.0614 11.2156C5.38058 11.5201 5.78482 11.7264 6.23438 11.7188C6.695 11.6708 7.08723 11.4955 7.40625 11.1562C7.66005 10.8205 7.74895 10.5054 7.75012 10.0891C7.75043 10.05 7.75075 10.011 7.75107 9.97073C7.75154 9.88831 7.75176 9.80589 7.75175 9.72347C7.75195 9.59868 7.75365 9.47396 7.75543 9.34918C7.75925 8.78048 7.71523 8.3409 7.30902 7.91034C6.68572 7.34267 5.78614 7.31352 5.1438 7.8739ZM11.2969 8.8125C11.2727 8.82635 11.2485 8.8402 11.2236 8.85447C10.5618 9.23344 9.8985 9.60953 9.23438 9.98438C9.23438 10.5567 9.23438 11.1291 9.23438 11.7188C10.6111 11.7188 11.9878 11.7188 13.4062 11.7188C13.1447 11.3039 13.1447 11.3039 12.8584 10.916C12.6781 10.6866 12.507 10.4521 12.3398 10.2129C12.1268 9.90835 11.9098 9.60697 11.6895 9.30762C11.6611 9.26903 11.6328 9.23044 11.6036 9.19068C11.564 9.13699 11.564 9.13699 11.5236 9.08221C11.4884 9.03459 11.4884 9.03459 11.4526 8.986C11.389 8.9007 11.389 8.9007 11.2969 8.8125ZM17.5151 9.30743C17.4763 9.33386 17.4763 9.33386 17.4366 9.36082C17.3509 9.41916 17.2653 9.47765 17.1797 9.53613C17.1204 9.57653 17.0611 9.61692 17.0017 9.65729C16.8794 9.74058 16.7571 9.82393 16.6348 9.90733C16.4108 10.0601 16.1866 10.2127 15.9624 10.3652C15.8644 10.4318 15.7665 10.4985 15.6685 10.5652C15.3998 10.7481 15.1303 10.9297 14.8594 11.1094C14.9101 11.3508 15.0042 11.5503 15.1875 11.7188C15.3885 11.7773 15.5813 11.768 15.7892 11.7599C15.876 11.7591 15.876 11.7591 15.9645 11.7581C16.149 11.7558 16.3332 11.7505 16.5176 11.7451C16.6428 11.7428 16.7679 11.7411 16.8931 11.7393C17.1997 11.7351 17.5059 11.7268 17.8125 11.7188C17.8125 10.868 17.8125 10.0172 17.8125 9.14062C17.71 9.14062 17.594 9.25367 17.5151 9.30743ZM4.07812 13.125C4.20574 13.6732 4.33336 14.2213 4.46484 14.7861C4.50474 14.9575 4.54463 15.1289 4.58574 15.3055C4.62235 15.4627 4.62235 15.4627 4.65896 15.6199C4.67493 15.6885 4.6909 15.7571 4.70686 15.8257C4.73142 15.9313 4.75599 16.0368 4.78056 16.1423C4.80117 16.2308 4.80117 16.2308 4.8222 16.3211C4.90195 16.6621 4.9823 17.0029 5.0625 17.3438C5.82047 17.3438 6.57844 17.3438 7.35938 17.3438C7.52625 16.6414 7.52625 16.6414 7.69263 15.9389C7.76038 15.6523 7.82819 15.3658 7.89633 15.0794C7.95127 14.8484 8.00595 14.6174 8.06045 14.3864C8.0813 14.2983 8.10223 14.2101 8.12325 14.122C8.15268 13.9987 8.18179 13.8752 8.21082 13.7517C8.22396 13.6971 8.22396 13.6971 8.23738 13.6414C8.27947 13.4608 8.29688 13.3127 8.29688 13.125C6.90469 13.125 5.5125 13.125 4.07812 13.125ZM3.375 18.75C3.375 20.0184 3.375 21.2869 3.375 22.5938C5.23125 22.5938 7.0875 22.5938 9 22.5938C9 21.3253 9 20.0569 9 18.75C7.14375 18.75 5.2875 18.75 3.375 18.75Z" />
<path d="M14.1094 5.625C14.5889 5.625 15.0684 5.625 15.5625 5.625C15.5625 6.10453 15.5625 6.58406 15.5625 7.07812C15.083 7.07812 14.6034 7.07812 14.1094 7.07812C14.1094 6.59859 14.1094 6.11906 14.1094 5.625Z" />
</svg>
