<svg width="24" height="24" viewBox="0 0 24 24" fill="none" xmlns="http://www.w3.org/2000/svg">
<path d="M23.1963 2.02315C23.1535 2.03921 22.9019 2.22654 22.6343 2.44064C21.9759 2.97054 21.5584 3.25422 20.8733 3.64496C15.933 6.48178 7.63658 7.52017 1.20822 6.10711C0.651559 5.984 0.469574 5.96259 0.346467 6.00541C0.132366 6.08035 0.00390625 6.29445 0.00390625 6.57813C0.00390625 6.94745 0.153776 7.0545 0.897774 7.22578L1.51331 7.36495L2.87285 9.64511C4.39831 12.209 4.68735 12.6586 4.86933 12.7817C5.06738 12.9101 5.36712 12.8406 5.54375 12.6318C5.62404 12.5355 6.21281 11.4275 6.84976 10.1643C7.95237 7.98048 8.0166 7.87343 8.15577 7.87343C8.35381 7.87343 8.39663 7.92696 10.4734 10.5336C12.1059 12.5836 12.2451 12.7442 12.4431 12.7977C12.7429 12.878 12.9195 12.8084 13.0694 12.5515C13.1336 12.4391 13.5779 11.1599 14.0489 9.72005C14.5252 8.27487 14.9213 7.09197 14.932 7.08126C14.9374 7.07056 15.1033 7.02774 15.3014 6.97957C15.6386 6.90463 15.6653 6.90463 15.7724 7.00098C15.8366 7.05985 16.5271 7.68074 17.3086 8.38727C20.2043 11.0046 20.3648 11.1385 20.6539 11.1385C20.9429 11.1385 21.0928 10.9725 21.1891 10.5336C21.2373 10.3249 21.4782 8.82618 21.7244 7.20972C21.9706 5.59862 22.1793 4.2712 22.19 4.26585C22.2007 4.26049 22.447 4.08921 22.7413 3.88582C23.2712 3.5272 23.8065 3.10435 23.9296 2.94913C24.042 2.81532 24.0152 2.446 23.8814 2.28007C23.7101 2.06062 23.4051 1.94821 23.1963 2.02315ZM20.7877 5.02055C20.7877 5.10619 20.1293 9.34537 20.1133 9.36678C20.1026 9.37749 19.9687 9.27044 19.8135 9.13127C19.6583 8.99211 18.9892 8.38727 18.3255 7.79315C17.6618 7.19902 17.0784 6.66377 17.0249 6.60489C16.9339 6.49784 16.9392 6.49249 17.7475 6.21416C18.727 5.8823 19.8296 5.43805 20.3381 5.17577C20.7234 4.97773 20.7877 4.95632 20.7877 5.02055ZM12.9302 9.15268C12.5876 10.1804 12.2879 11.01 12.2611 10.9939C12.2183 10.9672 10.5483 8.89576 10.0131 8.19994C9.74011 7.84667 9.63306 7.65933 9.75082 7.73427C9.84181 7.78779 12.4217 7.50946 13.1336 7.36495C13.3263 7.32748 13.4976 7.29536 13.519 7.29001C13.535 7.29001 13.2728 8.125 12.9302 9.15268ZM4.30197 7.73962C4.69805 7.77709 5.37782 7.83061 5.81673 7.85202C6.25028 7.87343 6.60354 7.89484 6.60354 7.90555C6.60354 7.95372 5.04061 11.0421 5.02991 11.0261C5.01385 11.01 3.06554 7.7985 2.97455 7.63792C2.95849 7.61116 3.07624 7.60581 3.26358 7.62722C3.43486 7.64863 3.90053 7.6968 4.30197 7.73962Z" fill="white"/>
<path d="M0.298325 11.1545C0.0574621 11.2937 -0.060293 11.5827 0.0306996 11.8396C0.0628146 11.936 0.298325 12.1715 0.65159 12.4712L1.22431 12.9476L1.72209 16.309C2.00042 18.161 2.24664 19.756 2.27875 19.847C2.34298 20.0718 2.57849 20.2377 2.81935 20.2377C3.09233 20.2377 3.16191 20.1788 6.75344 16.9138L7.84 15.9236L8.12904 15.9771L8.41272 16.0307L9.35476 18.8782C10.3878 21.9987 10.3664 21.9505 10.7785 21.9505C10.9498 21.9505 11.014 21.9077 11.2656 21.6454C11.4262 21.4742 12.304 20.409 13.2086 19.2743C14.1185 18.1395 14.916 17.1547 14.9802 17.0851C15.2211 16.8335 15.2479 16.871 16.5057 19.3813C17.2925 20.955 17.7261 21.7632 17.8224 21.8381C17.9134 21.9131 18.0419 21.9505 18.1864 21.9505C18.545 21.9505 18.4701 22.0576 20.4666 18.7658C21.1784 17.5882 21.7672 16.6194 21.7726 16.6141C21.7779 16.6087 22.1633 16.5284 22.6343 16.4374C23.1 16.3465 23.555 16.2341 23.6406 16.1912C23.86 16.0735 23.9724 15.7791 23.8975 15.5222C23.8279 15.2974 23.6192 15.0993 23.4426 15.0993C23.3783 15.0993 23.0625 15.1582 22.7414 15.2331C21.8903 15.4205 20.6325 15.6185 19.5566 15.7256C18.3898 15.838 15.1622 15.854 13.99 15.7523C8.42878 15.2599 4.0986 13.8201 1.3046 11.5399C0.71582 11.0582 0.571303 11.0047 0.298325 11.1545ZM3.4456 14.2269C4.27524 14.6337 5.8114 15.276 6.32524 15.4258C6.44835 15.4633 6.5447 15.5115 6.53934 15.5329C6.52864 15.5596 5.78999 16.2394 4.89077 17.0476C3.60082 18.2038 3.24755 18.4928 3.22079 18.4232C3.19938 18.3751 3.03881 17.3955 2.85682 16.2501C2.68019 15.0993 2.51961 14.0716 2.50356 13.9539C2.4875 13.8415 2.49285 13.7612 2.51426 13.7719C2.54102 13.7826 2.95852 13.986 3.4456 14.2269ZM10.7999 16.5177C11.5118 16.6355 12.4592 16.764 13.3317 16.8549L13.7224 16.8924L12.395 18.5303C11.667 19.4349 11.0569 20.1574 11.0408 20.136C11.014 20.1146 9.9703 17.0048 9.78296 16.3893C9.7669 16.3358 9.79367 16.325 9.90072 16.3518C9.981 16.3732 10.3824 16.4482 10.7999 16.5177ZM19.3104 18.4982C18.7538 19.4241 18.2881 20.1628 18.2667 20.1414C18.2506 20.12 17.8813 19.4134 17.4477 18.5677L16.6663 17.0316L16.8911 17.0048C17.0195 16.9888 17.5441 16.962 18.0579 16.9406C18.5718 16.9245 19.2837 16.8817 19.6369 16.8442C19.9902 16.8121 20.2899 16.7907 20.3006 16.7961C20.3113 16.8068 19.8671 17.5668 19.3104 18.4982Z" fill="white"/>
</svg>
