<svg viewBox="0 0 24 24" fill="currentColor" xmlns="http://www.w3.org/2000/svg">
<path d="M0.376547 0.0844574C0.287117 0.126686 0.16474 0.234604 0.108257 0.323753L0 0.483284V9.19179C0 17.7408 0 17.905 0.0941369 18.0504C0.141205 18.1349 0.240049 18.2381 0.315358 18.285C0.437736 18.3648 0.753095 18.3695 6.2601 18.393L12.0731 18.4164L12.5061 20.9971C12.9626 23.7044 12.9579 23.6903 13.2451 23.9015C13.3721 24 13.4051 24 17.5801 24C21.755 24 21.788 24 21.9151 23.9015C21.9857 23.8499 22.0845 23.756 22.1316 23.6903C22.2398 23.5402 23.7225 14.7191 23.7225 14.2076C23.7225 14.0152 23.6801 13.7196 23.6236 13.5085L23.5248 13.1472L23.6519 12.9595C23.8684 12.6311 23.9672 12.3026 23.9955 11.8194C24.019 11.3267 23.9531 11.0123 23.7366 10.5853C23.5766 10.271 23.1153 9.79707 22.8094 9.63754C22.6023 9.52962 22.5458 9.46862 22.4422 9.24809C22.2587 8.85865 21.9715 8.52551 21.6138 8.28622C21.1431 7.97654 20.8843 7.90616 20.2253 7.90616H19.6746V4.19472V0.483284L19.5663 0.323753C19.5099 0.234604 19.3875 0.126686 19.2981 0.0844574C19.1427 0.00469208 18.592 0 9.8373 0C1.08257 0 0.531873 0.00469208 0.376547 0.0844574ZM6.17538 2.46334L6.70725 3.51906L6.17538 4.57478L5.64821 5.6305H3.53013H1.41205V3.51906V1.40762H3.53013H5.64821L6.17538 2.46334ZM10.4868 2.08798C10.6704 2.46334 10.8257 2.77771 10.8257 2.79179C10.8257 2.80586 10.1762 2.81525 9.37603 2.81525H7.93103L7.58743 2.1349C7.40386 1.75953 7.24854 1.44516 7.24854 1.43108C7.24854 1.41701 7.89808 1.40762 8.69825 1.40762H10.1432L10.4868 2.08798ZM14.9913 2.11144L15.3443 2.81525H13.8852H12.4261L12.0731 2.11144L11.72 1.40762H13.1792H14.6383L14.9913 2.11144ZM18.2626 2.11144V2.81525H17.5895H16.9211L16.5775 2.1349C16.3939 1.75953 16.2386 1.44516 16.2386 1.43108C16.2386 1.41701 16.6952 1.40762 17.2506 1.40762H18.2626V2.11144ZM10.8257 4.25103C10.8257 4.2651 10.6798 4.57947 10.501 4.95484L10.1715 5.6305H8.71237C7.9075 5.6305 7.24854 5.62111 7.24854 5.60704C7.24854 5.59296 7.40386 5.27859 7.58743 4.90322L7.93103 4.22287H9.37603C10.1762 4.22287 10.8257 4.23695 10.8257 4.25103ZM15.3443 4.24633C15.3443 4.26041 15.189 4.57478 15.0054 4.95015L14.6618 5.6305H13.2168C12.4167 5.6305 11.7671 5.62111 11.7671 5.61173C11.7671 5.60234 11.913 5.28798 12.0966 4.90792L12.4214 4.22287H13.8852C14.6854 4.22287 15.3443 4.23226 15.3443 4.24633ZM18.2626 4.92669V5.6305H17.2506H16.2386L16.5916 4.92669L16.9446 4.22287H17.6036H18.2626V4.92669ZM18.2626 7.17419V7.31026L17.8295 7.2868C17.1564 7.24927 16.6434 7.4088 16.1162 7.82639L15.8762 8.01408L15.622 7.94839C14.6524 7.69501 13.6075 8.09853 13.038 8.9478C12.9062 9.14018 12.8026 9.32317 12.8026 9.35601C12.8026 9.38886 12.6614 9.48739 12.4873 9.57185C12.0919 9.76422 11.6589 10.1912 11.447 10.5853C11.0564 11.3314 11.0752 12.2041 11.4941 12.9032L11.6541 13.1613L11.5741 13.3724C11.5271 13.4897 11.4753 13.6962 11.4612 13.8276L11.4282 14.0762H6.42013H1.41205V10.5572V7.03812H9.8373H18.2626V7.17419ZM18.0507 8.7695C18.2484 8.85865 18.4649 9.07918 18.6014 9.32786C18.705 9.52023 18.8791 9.62346 19.1333 9.6563C19.3216 9.67507 19.3828 9.6563 19.6417 9.49677C20.1688 9.17302 20.6866 9.22933 21.0349 9.65161C21.1196 9.75484 21.1996 9.92844 21.2373 10.0833C21.3032 10.3789 21.482 10.6135 21.708 10.6979C22.2445 10.895 22.3905 11.0076 22.5175 11.3173C22.5976 11.505 22.6164 11.8991 22.5552 12.0023C22.5222 12.0493 22.4611 12.0352 22.2587 11.9507C21.3832 11.566 20.39 11.6974 19.6275 12.2979L19.3922 12.4856L19.1663 12.2979C18.239 11.5284 16.7846 11.5519 15.9233 12.3543L15.7726 12.495L15.5326 12.3026C14.7701 11.6974 13.7769 11.5613 12.9015 11.946C12.7603 12.0117 12.6379 12.054 12.6285 12.0399C12.619 12.0305 12.6002 11.9179 12.5814 11.7865C12.5579 11.5848 12.5767 11.505 12.6849 11.2845C12.8309 10.9795 13.0191 10.8387 13.4333 10.7214C13.7958 10.6229 13.9558 10.4587 14.0546 10.0974C14.2711 9.32317 14.9631 9.0651 15.6597 9.49677C15.9185 9.6563 15.9797 9.67507 16.168 9.6563C16.4222 9.62346 16.5963 9.52023 16.6999 9.32786C16.9258 8.91496 17.2647 8.68035 17.6507 8.68035C17.7683 8.68035 17.9472 8.72258 18.0507 8.7695ZM14.2664 13.1941C14.5065 13.2645 14.803 13.5226 14.9301 13.7666C15.0195 13.9449 15.0478 14.2545 15.2784 18.0176C15.4149 20.251 15.5326 22.1982 15.542 22.3437L15.5608 22.6158H14.8877C14.2288 22.6158 14.2147 22.6158 14.1911 22.5079C14.097 22.1091 12.8497 14.3953 12.8497 14.2123C12.8497 13.4804 13.551 12.9783 14.2664 13.1941ZM18.0696 13.2598C18.3426 13.3959 18.5591 13.654 18.6438 13.9402C18.6862 14.0809 18.6532 15.0006 18.4791 18.332C18.3567 20.6499 18.2626 22.5595 18.2626 22.5783C18.2626 22.6018 17.9754 22.6158 17.6271 22.6158H16.9964L16.9729 22.4657C16.9588 22.3812 16.8364 20.4622 16.6999 18.2006C16.4222 13.5554 16.4175 13.8463 16.794 13.471C17.1517 13.1144 17.6177 13.0393 18.0696 13.2598ZM21.5715 13.1894C21.8021 13.2504 22.1127 13.532 22.221 13.7713C22.2681 13.8745 22.3104 14.0575 22.3104 14.1842C22.3104 14.3062 22.0045 16.244 21.6279 18.4868C21.2514 20.7296 20.9455 22.5783 20.9455 22.5924C20.9455 22.6065 20.6583 22.6158 20.31 22.6158C19.7687 22.6158 19.6746 22.6065 19.6746 22.5455C19.6746 22.3531 20.0982 14.3531 20.117 14.1607C20.1924 13.4428 20.8654 12.9924 21.5715 13.1894ZM11.6024 15.5871C11.6447 15.7842 11.8142 16.8305 11.8142 16.9103C11.8142 16.9806 11.4 16.9853 6.61311 16.9853H1.41205V16.2346V15.4839H6.49544H11.5788L11.6024 15.5871Z" />
<path d="M3.3701 2.9044C2.93707 3.19062 2.93707 3.81467 3.36539 4.08212C3.5725 4.2088 3.89727 4.21819 4.10437 4.09619C4.5374 3.84282 4.55152 3.16247 4.1279 2.9091C3.92551 2.7871 3.55367 2.78241 3.3701 2.9044Z" />
<path d="M3.37014 11.261C3.10185 11.3455 2.87122 11.6598 2.87122 11.9507C2.87122 12.1384 3.02183 12.3918 3.20069 12.5138L3.35602 12.6217H5.60118H7.84635L8.00638 12.5138C8.43941 12.2276 8.43 11.6645 7.98755 11.3361C7.85576 11.2375 7.80399 11.2375 5.6812 11.2282C4.48566 11.2235 3.44545 11.2375 3.37014 11.261Z" />
</svg>
