<svg viewBox="0 0 24 24" fill="currentColor" xmlns="http://www.w3.org/2000/svg">
<path d="M7.28969 0.0672675C6.89606 0.165716 6.60085 0.334485 6.30094 0.634519C5.98229 0.948617 5.80422 1.28616 5.71988 1.71277C5.65896 2.04093 5.6777 10.9998 5.73862 11.2154L5.77611 11.3467H3.85484C2.59431 11.3467 1.84454 11.3654 1.68053 11.3982C0.874541 11.5717 0.223185 12.2233 0.054489 13.025C-0.0204871 13.3766 -0.0158011 21.9791 0.054489 22.326C0.185697 22.9308 0.649612 23.5309 1.17913 23.7793C1.66648 24.009 1.69928 24.009 6.5165 23.995C11.5633 23.9809 11.1978 24.0044 11.7508 23.6481L11.9991 23.4887L12.2475 23.6481C12.8004 24.0044 12.4349 23.9809 17.4818 23.995C20.7292 24.0044 22.0834 23.995 22.2849 23.9575C22.6645 23.8825 23.1518 23.6199 23.4049 23.348C23.6532 23.0855 23.8688 22.6729 23.9438 22.326C24.0187 21.9744 24.0187 13.3719 23.9438 13.025C23.7704 12.2186 23.119 11.567 22.3177 11.3982C22.1584 11.3654 21.3805 11.3467 20.1434 11.3467H18.2221L18.2596 11.2154C18.3206 11.0044 18.3393 2.04093 18.2784 1.71745C18.1191 0.892361 17.4677 0.226661 16.6477 0.0532034C16.2728 -0.0264931 7.60834 -0.012429 7.28969 0.0672675ZM16.5446 1.5018C16.6664 1.56275 16.7648 1.6612 16.8257 1.78309C16.9194 1.96123 16.9194 2.05031 16.9194 6.38205V10.7935L16.8163 10.981C16.7507 11.0935 16.6383 11.206 16.5352 11.2576C16.3665 11.342 16.1884 11.3467 11.9991 11.3467C7.7208 11.3467 7.63177 11.3467 7.4537 11.2529C7.33186 11.192 7.23346 11.0935 7.17254 10.9716C7.07882 10.7935 7.07882 10.7091 7.07882 6.36798C7.0835 1.39867 7.05539 1.74558 7.43496 1.52056L7.61771 1.40804H11.9898C16.2775 1.40804 16.3665 1.40804 16.5446 1.5018ZM11.2962 17.3942C11.2962 21.9557 11.2962 22.0401 11.2025 22.2229C11.1416 22.3448 11.0432 22.4432 10.9213 22.5042C10.7433 22.5979 10.6542 22.5979 6.3478 22.5979H1.9617L1.77425 22.4948C1.66179 22.4292 1.54933 22.3167 1.49778 22.2135C1.41343 22.0448 1.40875 21.8713 1.40875 17.6661C1.41343 12.7484 1.39 13.0906 1.76488 12.8656L1.94764 12.7531H6.62428H11.2962V17.3942ZM22.2146 12.8468C22.3365 12.9078 22.4349 13.0062 22.4958 13.1281C22.5895 13.3063 22.5895 13.3953 22.5895 17.6755C22.5895 21.9557 22.5895 22.0448 22.4958 22.2229C22.4349 22.3448 22.3365 22.4432 22.2146 22.5042C22.0366 22.5979 21.9475 22.5979 17.6411 22.5979H13.255L13.0675 22.4948C12.9551 22.4292 12.8426 22.3167 12.7911 22.2135C12.7067 22.0448 12.702 21.8619 12.702 17.3942V12.7531H17.3646C21.9475 12.7531 22.0319 12.7531 22.2146 12.8468Z" />
<path d="M11.9757 2.93634C9.26717 3.54109 8.26905 6.82271 10.1856 8.81044C11.2587 9.9215 12.8895 10.2028 14.2531 9.51364C14.9044 9.18548 14.9982 8.58541 14.4593 8.20568C14.1219 7.96659 13.7751 7.60093 13.6439 7.34308C13.1378 6.31641 13.4424 5.2616 14.4593 4.54902C14.8435 4.27711 14.9185 3.8505 14.6373 3.51765C14.2343 3.03478 12.866 2.73475 11.9757 2.93634ZM12.6364 4.37087C12.4865 4.57715 12.1866 5.23347 12.1069 5.5335C12.0507 5.73978 12.0272 6.01168 12.0272 6.37735C12.0272 6.74302 12.0507 7.01492 12.1069 7.2212C12.1866 7.52123 12.4865 8.17755 12.6364 8.37914C12.7114 8.48228 12.7067 8.48696 12.6177 8.48696C12.1678 8.48696 11.5961 8.22912 11.2259 7.85408C10.5839 7.21651 10.4246 6.28828 10.8136 5.45381C11.1088 4.82092 11.9007 4.29118 12.5802 4.27242C12.7114 4.26774 12.7114 4.27242 12.6364 4.37087Z" />
<path d="M6.07134 14.2345C5.85578 14.3423 5.84173 14.3704 5.45747 15.144C5.26066 15.5425 5.09665 15.8753 5.09196 15.88C5.08728 15.8894 4.73114 15.9456 4.30471 16.0113C3.42843 16.1425 3.34877 16.166 3.20819 16.3207C2.99732 16.5551 2.95046 16.7801 3.04886 17.052C3.07698 17.1223 3.36751 17.4505 3.69085 17.774L4.2766 18.3646L4.15008 19.1288C3.99544 20.0664 4.00481 20.2117 4.26254 20.4508C4.43124 20.6102 4.4781 20.629 4.69365 20.629C4.90921 20.629 5.02636 20.5821 5.65897 20.2539L6.37593 19.8742L7.09289 20.2492C7.48183 20.4555 7.85671 20.629 7.92231 20.6337C8.19879 20.6571 8.30657 20.6243 8.48932 20.4508C8.74705 20.2117 8.75642 20.0664 8.60179 19.1288L8.47526 18.3693L9.08444 17.7552C9.57648 17.2536 9.703 17.1036 9.72643 16.9629C9.77329 16.7238 9.71706 16.5222 9.55773 16.3394C9.39841 16.1613 9.27657 16.1238 8.32063 15.9878C7.9598 15.9362 7.6599 15.8753 7.65053 15.8565C7.64115 15.8378 7.47246 15.4956 7.27565 15.0971C6.95231 14.4501 6.89139 14.3611 6.72738 14.2673C6.50714 14.1407 6.26815 14.1314 6.07134 14.2345ZM6.53057 16.7613C6.66646 17.0426 6.8539 17.1879 7.12569 17.2348C7.54743 17.3005 7.53338 17.277 7.29439 17.5349C7.04134 17.8021 7.00854 17.9099 7.05072 18.3365L7.07883 18.66L6.80236 18.5193C6.45559 18.3412 6.30564 18.3412 5.95419 18.5193L5.67303 18.66L5.70115 18.3365C5.74332 17.9099 5.71052 17.8068 5.45747 17.5349C5.21849 17.277 5.20443 17.3005 5.62617 17.2348C5.88859 17.1926 6.06665 17.052 6.21661 16.766C6.29158 16.6207 6.36187 16.5035 6.37593 16.5035C6.38999 16.5035 6.46028 16.6207 6.53057 16.7613Z" />
<path d="M15.6917 14.9283C15.2981 15.0408 15.0263 15.2049 14.7358 15.4909C14.2438 15.9831 14.0329 16.6395 14.1453 17.3052C14.2578 17.9521 14.3187 18.0365 15.8136 19.5414C16.5633 20.3008 17.2334 20.9478 17.3037 20.9853C17.4677 21.0696 17.777 21.0696 17.941 20.9853C18.0113 20.9478 18.672 20.3102 19.4077 19.5648C20.5277 18.4397 20.7761 18.1678 20.8979 17.924C21.2119 17.2958 21.2025 16.6066 20.8698 15.9784C20.2934 14.8768 18.8642 14.5298 17.8286 15.2377L17.6271 15.3784L17.3787 15.2237C17.2428 15.1393 17.0366 15.0268 16.9195 14.9846C16.643 14.8721 15.9869 14.8439 15.6917 14.9283ZM16.5118 16.3441C16.5961 16.3863 16.8023 16.5551 16.971 16.7238C17.4771 17.2161 17.7395 17.2208 18.2503 16.7379C18.7658 16.2504 18.9907 16.1753 19.3562 16.3629C19.5671 16.4707 19.7311 16.7379 19.7311 16.9723C19.7311 17.2348 19.5577 17.4552 18.5877 18.4256L17.6224 19.3866L16.657 18.4256C15.687 17.4552 15.5137 17.2348 15.5137 16.9723C15.5137 16.4754 16.0713 16.1238 16.5118 16.3441Z" />
</svg>
