<svg viewBox="0 0 24 24" fill="currentColor" xmlns="http://www.w3.org/2000/svg">
<path d="M13.6128 -0.0125465C13.6518 -0.0127588 13.6908 -0.0129712 13.7309 -0.0131901C13.8612 -0.0137822 13.9915 -0.0137068 14.1218 -0.0136294C14.2154 -0.0139099 14.3089 -0.014229 14.4025 -0.0145835C14.6564 -0.0154113 14.9104 -0.0156314 15.1643 -0.0156912C15.3231 -0.0157579 15.4818 -0.0159581 15.6405 -0.0162066C16.1945 -0.0170738 16.7484 -0.0174568 17.3023 -0.017383C17.8184 -0.0173267 18.3344 -0.0183158 18.8504 -0.0197965C19.2937 -0.0210231 19.7371 -0.0215252 20.1804 -0.0214653C20.445 -0.0214414 20.7097 -0.0217075 20.9743 -0.0227008C21.2233 -0.0236097 21.4722 -0.0236149 21.7212 -0.0229336C21.8124 -0.0228357 21.9036 -0.0230561 21.9949 -0.0236236C22.877 -0.0287557 22.877 -0.0287558 23.2031 0.187489C23.2533 0.218806 23.2533 0.218806 23.3044 0.250755C23.6513 0.476009 23.89 0.822794 24 1.21874C24.0086 1.34385 24.0128 1.46393 24.0121 1.58892C24.0122 1.62552 24.0124 1.66212 24.0126 1.69984C24.013 1.82267 24.0128 1.94549 24.0125 2.06832C24.0127 2.1572 24.0129 2.24608 24.0132 2.33497C24.0138 2.57936 24.0137 2.82376 24.0136 3.06816C24.0136 3.33168 24.0141 3.5952 24.0146 3.85872C24.0154 4.37506 24.0156 4.8914 24.0157 5.40774C24.0157 5.82738 24.0159 6.24703 24.0162 6.66667C24.0169 7.66251 24.0175 8.65835 24.0174 9.65418C24.0174 9.68603 24.0174 9.71788 24.0174 9.75069C24.0174 9.9121 24.0174 10.0735 24.0174 10.2349C24.0174 10.283 24.0174 10.283 24.0174 10.3321C24.0174 10.3969 24.0174 10.4617 24.0174 10.5265C24.0173 11.5352 24.018 12.5438 24.0193 13.5524C24.0207 14.6856 24.0215 15.8188 24.0215 16.952C24.0214 17.552 24.0217 18.1519 24.0227 18.7519C24.0236 19.2628 24.0238 19.7736 24.0231 20.2844C24.0228 20.545 24.0228 20.8057 24.0236 21.0663C24.0244 21.305 24.0242 21.5436 24.0234 21.7822C24.0233 21.8685 24.0234 21.9548 24.024 22.0411C24.0286 22.8692 24.0286 22.8692 23.8125 23.2031C23.7916 23.2366 23.7708 23.2701 23.7493 23.3046C23.5091 23.6736 23.1572 23.8974 22.7344 24C22.612 24.0084 22.4949 24.0128 22.3727 24.0121C22.3201 24.0123 22.3201 24.0123 22.2663 24.0125C22.1489 24.013 22.0314 24.0128 21.9139 24.0125C21.8288 24.0127 21.7436 24.0129 21.6585 24.0132C21.4246 24.0137 21.1908 24.0137 20.9569 24.0136C20.7046 24.0136 20.4523 24.0141 20.2001 24.0146C19.7058 24.0153 19.2116 24.0156 18.7174 24.0157C18.3156 24.0157 17.9138 24.0159 17.5121 24.0162C16.3729 24.017 15.2338 24.0174 14.0947 24.0174C14.0332 24.0174 13.9718 24.0174 13.9086 24.0174C13.8471 24.0174 13.7856 24.0174 13.7222 24.0173C12.7258 24.0173 11.7294 24.0182 10.733 24.0195C9.70984 24.0209 8.68667 24.0215 7.6635 24.0214C7.0891 24.0214 6.5147 24.0217 5.9403 24.0227C5.45121 24.0235 4.96213 24.0237 4.47303 24.0231C4.22357 24.0228 3.97411 24.0228 3.72464 24.0236C3.49606 24.0243 3.2675 24.0242 3.03892 24.0234C2.95644 24.0232 2.87395 24.0234 2.79146 24.0239C1.99585 24.0286 1.31767 23.8502 0.714854 23.2939C0.173535 22.7172 -0.0250899 22.0593 -0.0234275 21.2812C-0.0254215 21.1964 -0.0254215 21.1964 -0.0274558 21.1099C-0.0282491 20.7449 0.0176858 20.4572 0.234385 20.1562C0.495984 19.9089 0.750084 19.7666 1.11622 19.7754C1.16196 19.7762 1.2077 19.7771 1.25483 19.7779C1.30659 19.7796 1.30659 19.7796 1.35939 19.7812C1.36059 19.7476 1.3618 19.7139 1.36305 19.6792C1.44571 18.1706 2.07143 16.7257 2.95313 15.5156C2.98552 15.4708 3.01791 15.4261 3.05128 15.3799C3.58343 14.6926 4.23893 14.066 4.96876 13.5937C5.01036 13.5665 5.01036 13.5665 5.0528 13.5386C6.20767 12.7896 7.52572 12.2993 8.90626 12.2344C8.90626 11.9095 8.90626 11.5847 8.90626 11.25C8.78928 11.2539 8.67229 11.2577 8.55177 11.2617C8.25978 11.2652 8.05791 11.2602 7.82813 11.0625C7.66663 10.8741 7.62765 10.6497 7.64063 10.4062C7.7024 10.187 7.79359 10.0587 7.97169 9.91698C8.16176 9.81588 8.29721 9.79066 8.5096 9.78857C8.56281 9.78797 8.61602 9.78736 8.67084 9.78674C8.72841 9.7864 8.78597 9.78605 8.84529 9.78569C8.90454 9.78532 8.9638 9.78494 9.02485 9.78455C9.15043 9.7839 9.27601 9.78338 9.40159 9.78303C9.56168 9.78251 9.72173 9.7809 9.8818 9.77904C10.0353 9.77751 10.1888 9.7773 10.3424 9.77691C10.3994 9.77609 10.4565 9.77526 10.5154 9.77442C10.8455 9.77526 11.0644 9.80368 11.3438 9.98436C11.5197 10.1828 11.5909 10.3778 11.5781 10.6406C11.5034 10.8857 11.3979 11.0376 11.2031 11.2031C11.0267 11.2619 10.8623 11.255 10.6787 11.2529C10.5579 11.252 10.437 11.251 10.3125 11.25C10.3125 11.5748 10.3125 11.8997 10.3125 12.2344C10.3918 12.2373 10.4711 12.2402 10.5527 12.2432C10.8634 12.2658 11.1577 12.3294 11.4606 12.4008C11.5081 12.4118 11.5556 12.4228 11.6046 12.4342C11.7208 12.4611 11.837 12.4883 11.9531 12.5156C11.9532 12.4578 11.9533 12.3999 11.9533 12.3404C11.955 10.9668 11.9577 9.59325 11.9615 8.21969C11.9619 8.05054 11.9624 7.88139 11.9629 7.71224C11.963 7.66173 11.963 7.66173 11.9631 7.6102C11.9646 7.06533 11.9654 6.52045 11.9659 5.97558C11.9665 5.41627 11.9678 4.85697 11.9698 4.29766C11.9708 3.9836 11.9716 3.66954 11.9715 3.35548C11.9715 3.0598 11.9723 2.76414 11.9738 2.46846C11.9742 2.36002 11.9743 2.25157 11.974 2.14313C11.9737 1.99485 11.9746 1.84662 11.9757 1.69834C11.9753 1.65562 11.975 1.61289 11.9746 1.56887C11.9805 1.12514 12.1626 0.742376 12.4688 0.421864C12.8323 0.121085 13.1373 -0.0144587 13.6128 -0.0125465ZM13.4531 1.49999C13.4106 1.62751 13.3998 1.70449 13.3981 1.83583C13.3975 1.8758 13.3969 1.91577 13.3963 1.95694C13.3958 2.00087 13.3954 2.04479 13.3949 2.09005C13.3943 2.1367 13.3937 2.18335 13.393 2.23142C13.391 2.38849 13.3892 2.54556 13.3875 2.70263C13.3862 2.81496 13.3848 2.92728 13.3834 3.03961C13.3712 4.06557 13.3643 5.09157 13.3587 6.11758C13.3579 6.2549 13.3572 6.39223 13.3564 6.52955C13.3562 6.56368 13.356 6.59781 13.3558 6.63298C13.3525 7.1854 13.3462 7.73774 13.3386 8.29012C13.3309 8.85758 13.3264 9.425 13.325 9.99252C13.324 10.3111 13.3217 10.6294 13.3156 10.9479C13.3101 11.2478 13.3085 11.5474 13.31 11.8473C13.3098 11.9571 13.3082 12.067 13.305 12.1768C13.2707 12.7322 13.2707 12.7322 13.4888 13.2183C13.6903 13.3817 13.9109 13.4903 14.1478 13.5927C14.5751 13.7931 14.9427 14.1625 15.2813 14.4844C15.3063 14.5079 15.3313 14.5314 15.3571 14.5556C16.8355 15.9513 17.5881 17.7929 17.8594 19.7812C17.8912 19.7819 17.923 19.7826 17.9557 19.7833C18.2913 19.8005 18.5702 19.8588 18.8438 20.0625C19.1713 20.4419 19.1828 20.7699 19.1865 21.2549C19.1886 21.3408 19.1886 21.3408 19.1907 21.4284C19.1931 21.7791 19.1509 22.0637 19.0249 22.3918C18.9789 22.4954 18.9789 22.4954 18.9844 22.5937C19.4212 22.5959 19.858 22.5976 20.2948 22.5986C20.4976 22.5991 20.7005 22.5997 20.9033 22.6008C21.099 22.6018 21.2947 22.6024 21.4905 22.6026C21.5652 22.6028 21.6398 22.6031 21.7145 22.6037C21.8191 22.6043 21.9237 22.6044 22.0283 22.6044C22.0878 22.6046 22.1474 22.6048 22.2087 22.605C22.3514 22.5943 22.4318 22.5833 22.5469 22.5C22.6015 22.3361 22.6003 22.1894 22.5998 22.019C22.5999 21.9664 22.5999 21.9664 22.6 21.9127C22.6003 21.7942 22.6001 21.6757 22.6 21.5571C22.6001 21.4717 22.6002 21.3863 22.6003 21.3008C22.6006 21.0653 22.6006 20.8297 22.6006 20.5942C22.6006 20.3404 22.6008 20.0867 22.601 19.8329C22.6014 19.3356 22.6016 18.8382 22.6016 18.3408C22.6016 17.9367 22.6017 17.5325 22.6019 17.1284C22.6023 15.9837 22.6025 14.8389 22.6025 13.6942C22.6024 13.6324 22.6024 13.5707 22.6024 13.507C22.6024 13.4143 22.6024 13.4143 22.6024 13.3197C22.6024 12.3171 22.6029 11.3145 22.6035 10.3119C22.6042 9.28348 22.6045 8.25502 22.6045 7.22656C22.6045 6.64876 22.6046 6.07097 22.6051 5.49317C22.6055 5.0013 22.6056 4.50944 22.6053 4.01757C22.6052 3.76644 22.6052 3.51532 22.6056 3.26419C22.6059 3.03453 22.6059 2.80488 22.6055 2.57522C22.6054 2.49191 22.6055 2.4086 22.6057 2.3253C22.6061 2.21248 22.6058 2.09968 22.6054 1.98687C22.6057 1.95416 22.6059 1.92145 22.6061 1.88775C22.6049 1.72129 22.6003 1.59008 22.5 1.45311C22.3344 1.3979 22.1851 1.3996 22.0127 1.39997C21.9771 1.39987 21.9416 1.39976 21.9049 1.39965C21.7853 1.39935 21.6657 1.39939 21.546 1.39943C21.4604 1.39929 21.3748 1.39913 21.2892 1.39895C21.0564 1.39854 20.8236 1.39843 20.5907 1.3984C20.3965 1.39835 20.2023 1.39818 20.0081 1.39802C19.5501 1.39763 19.0921 1.39752 18.634 1.39755C18.1611 1.39758 17.6882 1.39709 17.2153 1.39635C16.8096 1.39573 16.4039 1.39548 15.9982 1.39551C15.7557 1.39552 15.5133 1.39539 15.2708 1.39489C15.0429 1.39444 14.8149 1.39444 14.587 1.39478C14.5032 1.39483 14.4195 1.39472 14.3357 1.39443C14.2215 1.39407 14.1074 1.39429 13.9932 1.39465C13.96 1.39441 13.9267 1.39417 13.8924 1.39392C13.7246 1.3951 13.5911 1.39845 13.4531 1.49999ZM5.53126 15C5.48848 15.0325 5.4457 15.065 5.40162 15.0985C3.97459 16.2197 3.03882 17.8344 2.81251 19.6406C2.81251 19.687 2.81251 19.7334 2.81251 19.7812C7.29845 19.7812 11.7844 19.7812 16.4063 19.7812C16.2414 18.5447 15.8715 17.4002 15.0938 16.4062C15.0613 16.3635 15.0287 16.3207 14.9952 16.2766C13.8678 14.8416 12.2625 13.9296 10.4531 13.6875C10.4112 13.6814 10.3693 13.6753 10.3261 13.669C8.66103 13.4616 6.84928 13.9687 5.53126 15ZM1.40626 21.1875C1.45815 21.8283 1.45815 21.8283 1.8252 22.3066C2.25637 22.6058 2.6408 22.6007 3.14862 22.6C3.23473 22.6002 3.23473 22.6002 3.32258 22.6003C3.48136 22.6006 3.64014 22.6006 3.79892 22.6006C3.97038 22.6005 4.14185 22.6008 4.31331 22.601C4.64901 22.6014 4.98471 22.6015 5.32041 22.6016C5.59332 22.6016 5.86624 22.6017 6.13915 22.6018C6.91326 22.6022 7.68736 22.6025 8.46147 22.6024C8.52404 22.6024 8.52404 22.6024 8.58786 22.6024C8.62962 22.6024 8.67138 22.6024 8.71441 22.6024C9.39127 22.6024 10.0681 22.6028 10.745 22.6035C11.4403 22.6042 12.1357 22.6045 12.831 22.6045C13.2213 22.6045 13.6115 22.6046 14.0017 22.6051C14.334 22.6055 14.6662 22.6056 14.9984 22.6053C15.1678 22.6051 15.3373 22.6051 15.5067 22.6055C15.6905 22.606 15.8744 22.6057 16.0582 22.6053C16.1381 22.6057 16.1381 22.6057 16.2196 22.6061C16.7043 22.604 17.1139 22.5538 17.4844 22.2187C17.7663 21.8866 17.7747 21.6411 17.8125 21.1875C12.3984 21.1875 6.98439 21.1875 1.40626 21.1875Z" />
<path d="M15.3238 10.4931C15.3968 10.4926 15.3968 10.4926 15.4712 10.4921C15.5247 10.4919 15.5783 10.4918 15.6335 10.4917C15.6898 10.4914 15.746 10.4911 15.804 10.4908C15.9908 10.4898 16.1777 10.4893 16.3645 10.4888C16.4288 10.4886 16.4932 10.4884 16.5575 10.4882C16.8598 10.4873 17.1621 10.4867 17.4644 10.4863C17.8132 10.4858 18.162 10.4846 18.5108 10.4827C18.7805 10.4813 19.0502 10.4806 19.3199 10.4804C19.4809 10.4803 19.6419 10.4799 19.8029 10.4787C19.9827 10.4774 20.1625 10.4776 20.3422 10.478C20.422 10.4771 20.422 10.4771 20.5034 10.4761C20.7933 10.4781 20.9677 10.492 21.1875 10.6875C21.3537 10.8766 21.3892 11.0422 21.3851 11.2941C21.3627 11.5083 21.2707 11.6391 21.1143 11.7803C20.9524 11.8923 20.8711 11.9122 20.6762 11.9131C20.6276 11.9135 20.579 11.9138 20.5289 11.9141C20.4753 11.9143 20.4217 11.9144 20.3665 11.9145C20.2821 11.915 20.2821 11.915 20.196 11.9155C20.0092 11.9164 19.8224 11.9169 19.6355 11.9174C19.5712 11.9176 19.5068 11.9178 19.4425 11.918C19.1402 11.9189 18.8379 11.9195 18.5356 11.9199C18.1868 11.9204 17.838 11.9216 17.4892 11.9235C17.2195 11.9249 16.9498 11.9256 16.6802 11.9258C16.5191 11.9259 16.3581 11.9263 16.1971 11.9275C16.0173 11.9288 15.8376 11.9286 15.6578 11.9283C15.578 11.9292 15.578 11.9292 15.4966 11.9301C15.2068 11.9282 15.0323 11.9142 14.8125 11.7187C14.6463 11.5296 14.6108 11.364 14.6149 11.1121C14.6373 10.898 14.7293 10.7671 14.8858 10.626C15.0476 10.5139 15.1289 10.494 15.3238 10.4931Z" />
<path d="M15.3238 7.68059C15.3968 7.68008 15.3968 7.68008 15.4712 7.67957C15.5247 7.67944 15.5783 7.67932 15.6335 7.67919C15.6898 7.67888 15.746 7.67857 15.804 7.67825C15.9908 7.67733 16.1777 7.67678 16.3645 7.67632C16.4288 7.67613 16.4932 7.67593 16.5575 7.67574C16.8598 7.67484 17.1621 7.67418 17.4644 7.67379C17.8132 7.67333 18.162 7.67209 18.5108 7.6702C18.7805 7.66879 19.0502 7.66809 19.3199 7.66794C19.4809 7.66783 19.6419 7.66741 19.8029 7.66623C19.9827 7.66493 20.1625 7.66513 20.3422 7.66545C20.422 7.66455 20.422 7.66455 20.5034 7.66364C20.7933 7.66555 20.9677 7.67952 21.1875 7.87498C21.3537 8.06412 21.3892 8.22967 21.3851 8.48161C21.3627 8.69575 21.2707 8.8266 21.1143 8.96776C20.9524 9.07982 20.8711 9.09971 20.6762 9.10063C20.6276 9.10097 20.579 9.1013 20.5289 9.10165C20.4753 9.10178 20.4217 9.1019 20.3665 9.10203C20.2821 9.10249 20.2821 9.10249 20.196 9.10297C20.0092 9.10389 19.8224 9.10444 19.6355 9.1049C19.5712 9.10509 19.5068 9.10529 19.4425 9.10548C19.1402 9.10638 18.8379 9.10704 18.5356 9.10743C18.1868 9.10789 17.838 9.10912 17.4892 9.11102C17.2195 9.11243 16.9498 9.11313 16.6802 9.11328C16.5191 9.11339 16.3581 9.11381 16.1971 9.11499C16.0173 9.11629 15.8376 9.11609 15.6578 9.11576C15.578 9.11667 15.578 9.11667 15.4966 9.11758C15.2068 9.11567 15.0323 9.1017 14.8125 8.90623C14.6463 8.7171 14.6108 8.55155 14.6149 8.29961C14.6373 8.08546 14.7293 7.95462 14.8858 7.81346C15.0476 7.7014 15.1289 7.68151 15.3238 7.68059Z" />
<path d="M7.5 15.5156C7.68772 15.6095 7.81213 15.7116 7.92188 15.8906C7.99898 16.1219 7.99642 16.3249 7.91895 16.5527C7.7439 16.8125 7.49471 16.9733 7.24219 17.1533C6.86013 17.4309 6.61129 17.7213 6.35805 18.1169C5.99288 18.6863 5.99288 18.6863 5.71875 18.75C5.45463 18.771 5.28989 18.7592 5.0625 18.6094C4.90661 18.4448 4.78125 18.2828 4.78125 18.0485C4.80452 17.7727 4.87818 17.5849 5.03027 17.3555C5.06137 17.3073 5.06137 17.3073 5.09309 17.2582C5.31454 16.9258 5.5753 16.6389 5.85938 16.3594C5.90191 16.3169 5.94445 16.2744 5.98828 16.2307C6.40147 15.8361 6.88911 15.3792 7.5 15.5156Z" />
<path d="M17.0877 3.46047C17.1319 3.45987 17.176 3.45926 17.2215 3.45864C17.2932 3.45813 17.2932 3.45813 17.3665 3.4576C17.4156 3.45722 17.4647 3.45684 17.5154 3.45645C17.6196 3.4558 17.7237 3.4553 17.8279 3.45493C17.987 3.45412 18.146 3.45207 18.3051 3.45C18.4063 3.44952 18.5075 3.44912 18.6087 3.44881C18.6799 3.44758 18.6799 3.44758 18.7525 3.44632C19.0332 3.44718 19.1919 3.47039 19.4063 3.65627C19.5725 3.8454 19.608 4.01095 19.6038 4.26289C19.5815 4.47704 19.4894 4.60788 19.333 4.74904C19.1778 4.85652 19.0986 4.8811 18.9123 4.88331C18.8461 4.88421 18.8461 4.88421 18.7786 4.88514C18.7307 4.88548 18.6829 4.88583 18.6336 4.88618C18.5844 4.88656 18.5353 4.88694 18.4846 4.88733C18.3805 4.88798 18.2763 4.88848 18.1721 4.88885C18.013 4.88966 17.854 4.89171 17.695 4.89378C17.5938 4.89426 17.4926 4.89466 17.3914 4.89497C17.3439 4.89579 17.2964 4.89661 17.2475 4.89746C16.9668 4.8966 16.8082 4.87339 16.5938 4.68752C16.4276 4.49838 16.392 4.33283 16.3962 4.08089C16.4185 3.86674 16.5106 3.7359 16.667 3.59474C16.8223 3.48726 16.9014 3.46268 17.0877 3.46047Z" />
<path d="M9.41599 14.8447C9.45303 14.8434 9.49007 14.842 9.52824 14.8406C9.8265 14.8374 9.9829 14.9244 10.2099 15.1201C10.35 15.2896 10.3281 15.5079 10.3251 15.7159C10.3068 15.9015 10.2548 15.9919 10.125 16.125C9.85715 16.3042 9.61587 16.342 9.2988 16.3359C9.26037 16.3367 9.22194 16.3374 9.18235 16.3381C8.92715 16.3365 8.78037 16.2933 8.5781 16.125C8.39433 15.9219 8.36089 15.756 8.37247 15.4907C8.4089 15.2582 8.5044 15.1021 8.69529 14.959C8.93418 14.8515 9.15777 14.8479 9.41599 14.8447Z" />
</svg>
