<svg viewBox="0 0 24 24" fill="currentColor" xmlns="http://www.w3.org/2000/svg">
<path d="M12.5625 1.05469V2.10937H11.1328H9.70313V3.51562V4.92187H9H8.29688V6.32812V7.73437H4.92188H1.54688V15.1641V22.5937H0.773438H0V23.2969V24H12H24V23.2969V22.5937H23.2266H22.4531V17.9766V13.3594H20.3438H18.2344V9.14062V4.92187H17.5313H16.8281V3.51562V2.10937H15.3984H13.9688V1.05469V-9.53674e-07H13.2656H12.5625V1.05469ZM15.4219 4.92187V6.32812H16.125H16.8281V9.84375V13.3594H14.6953H12.5625V17.9766V22.5937H11.1328H9.70313V14.4609V6.32812H10.4063H11.1094V4.92187V3.51562H13.2656H15.4219V4.92187ZM8.2875 15.8766L8.29688 22.5937H5.625H2.95313V15.8672V9.14062L5.61563 9.15L8.27344 9.16406L8.2875 15.8766ZM21.0469 18.6797V22.5937H20.3438H19.6406V19.4766V16.3594H18.9375H18.2344V19.4766V22.5937H17.5313H16.8281V19.4766V16.3594H16.125H15.4219V19.4766V22.5937H14.6953H13.9688V18.6797V14.7656H17.5078H21.0469V18.6797Z" />
<path d="M12.5625 5.625V6.32812H13.2656H13.9688V5.625V4.92187H13.2656H12.5625V5.625Z" />
<path d="M11.1562 8.4375V9.14062H11.8594H12.5625V8.4375V7.73437H11.8594H11.1562V8.4375Z" />
<path d="M13.9688 8.4375V9.14062H14.6719H15.375V8.4375V7.73437H14.6719H13.9688V8.4375Z" />
<path d="M11.1562 11.25V11.9531H11.8594H12.5625V11.25V10.5469H11.8594H11.1562V11.25Z" />
<path d="M13.9688 11.25V11.9531H14.6719H15.375V11.25V10.5469H14.6719H13.9688V11.25Z" />
<path d="M4.875 11.25V11.9531H5.57813H6.28125V11.25V10.5469H5.57813H4.875V11.25Z" />
<path d="M4.875 14.25V14.9531H5.57813H6.28125V14.25V13.5469H5.57813H4.875V14.25Z" />
<path d="M4.875 17.2969V18.0047L5.56875 17.9906L6.25781 17.9766L6.27188 17.2828L6.28594 16.5938H5.57813H4.875V17.2969Z" />
<path d="M4.875 20.2969V21H5.57813H6.28125V20.2969V19.5937H5.57813H4.875V20.2969Z" />
</svg>
