<svg viewBox="0 0 24 24" fill="currentColor" xmlns="http://www.w3.org/2000/svg">
<path d="M15.375 1.78594C13.3312 1.93125 11.2359 2.44219 10.3219 3.01875C9.9656 3.24375 9.93748 3.32813 9.93748 4.25157V5.06251L9.81092 5.09063C8.27342 5.44219 6.88123 5.93907 5.32029 6.69844C3.34685 7.65469 2.03904 8.54063 0.890604 9.69844C0.164041 10.4297 -0.0234585 10.7203 0.0140415 11.0344C0.0421665 11.2641 2.97654 17.5359 3.33748 18.1406C4.18592 19.5563 5.39529 20.6766 6.86717 21.3984C7.73435 21.825 8.66248 22.0969 9.7031 22.2234C10.589 22.3313 12.2344 22.1906 12.7922 21.9563C13.0359 21.8531 13.425 21.5484 13.9172 21.075C14.5922 20.4141 15.1406 19.6781 15.5625 18.8531C15.6703 18.6375 15.7875 18.4734 15.8156 18.4875C15.8437 18.4969 16.1062 18.5672 16.4015 18.6375L16.9406 18.7688L17.3297 18.6891C17.925 18.5625 18.6656 18.3094 19.2469 18.0234C21.6562 16.8516 23.3344 14.6391 23.8687 11.9484C23.9719 11.4234 23.9719 11.3391 23.9859 7.45313L24 3.49219L23.8969 3.30938C23.5969 2.79376 21.6984 2.15157 19.7109 1.90313C18.4406 1.73907 16.6781 1.69219 15.375 1.78594ZM18.1781 3.18751C19.8844 3.28594 21.389 3.57657 22.3734 3.99376L22.5937 4.08751V7.35469C22.5937 10.9078 22.5703 11.3344 22.3547 12.1875C21.7594 14.5031 20.0719 16.3125 17.775 17.1C17.3765 17.2359 17.2078 17.2688 16.9453 17.2641C16.5937 17.2594 16.2328 17.1563 16.2562 17.0625C16.4953 16.0406 16.5422 14.5594 16.3687 13.5938C16.3172 13.2984 16.2797 13.05 16.2844 13.0406C16.2937 13.0359 16.4344 13.0078 16.5984 12.9797C17.3109 12.8625 18.1031 13.0969 18.6656 13.5891C19.0594 13.9359 19.275 13.9875 19.6265 13.8328C19.8844 13.7109 20.0344 13.4344 20.0015 13.1344C19.9734 12.8766 19.8797 12.7453 19.4953 12.4359C18.6187 11.7141 17.4 11.4 16.2703 11.5969C16.0265 11.6391 15.8156 11.6578 15.7969 11.6391C15.7406 11.5734 14.5687 9.04219 14.5875 9.02344C14.5969 9.01407 14.7515 8.97657 14.9344 8.93438C15.3469 8.85001 15.6937 8.68126 15.9656 8.42813C16.3125 8.10938 16.3547 7.70626 16.0734 7.38282C15.8015 7.07344 15.4172 7.06876 15.0375 7.36407C14.8781 7.49532 14.7937 7.52344 14.5547 7.53751C14.2875 7.55626 14.2547 7.54688 14.0578 7.39688C13.9406 7.30782 13.8094 7.21407 13.7625 7.18594C13.7156 7.15782 13.4672 6.69844 13.2187 6.15938C12.6281 4.90313 12.6328 4.90782 11.8781 4.87969L11.3437 4.86563V4.47188V4.07813L11.5125 4.00782C13.0781 3.35626 15.6234 3.04219 18.1781 3.18751ZM12.9656 8.95313C14.4984 12.2203 14.639 12.5297 14.7844 13.0453C15.1547 14.325 15.1547 15.7172 14.7937 16.9781C14.4047 18.3047 13.5984 19.5328 12.5109 20.4375C12.2672 20.6391 12.2062 20.6672 11.8031 20.7469C11.1469 20.8734 9.98435 20.8641 9.29529 20.7281C7.7156 20.4141 6.40779 19.6688 5.3156 18.4594C4.97342 18.0797 4.58435 17.5125 4.35935 17.0625C4.12967 16.6078 1.54685 11.1 1.54685 11.0625C1.54685 10.9969 2.52654 10.0781 2.88279 9.81094C4.56092 8.54532 6.90467 7.37813 9.02342 6.75469C9.97498 6.47344 11.0203 6.28126 11.5219 6.30001L11.7187 6.30469L12.9656 8.95313Z" />
<path d="M18.4687 7.17188C18.2625 7.22345 18.014 7.49063 17.9718 7.71095C17.925 7.98282 18.0187 8.2172 18.2718 8.43751C18.8625 8.96251 19.6687 9.1172 20.4281 8.8547C20.7703 8.73751 21.2484 8.38595 21.3468 8.18438C21.5015 7.85626 21.3984 7.43907 21.1218 7.27032C20.8031 7.07813 20.5359 7.11095 20.1843 7.37345C19.9922 7.52345 19.9265 7.54688 19.7156 7.54688C19.5047 7.54688 19.425 7.51876 19.1906 7.36407C18.8812 7.15782 18.7125 7.11563 18.4687 7.17188Z" />
<path d="M11.0156 10.1719C10.2984 10.3031 9.7359 10.7156 9.42653 11.3391C9.2484 11.6906 9.23434 11.9625 9.38903 12.1922C9.69372 12.6469 10.3875 12.6 10.6172 12.1078C10.8234 11.6625 11.025 11.5594 11.6015 11.6016C12.0843 11.6391 12.2484 11.5922 12.4172 11.3531C12.7172 10.9313 12.5062 10.3922 11.9812 10.2469C11.6578 10.1531 11.2687 10.125 11.0156 10.1719Z" />
<path d="M6.20154 12.3984C5.57342 12.5391 5.02967 12.9609 4.75311 13.5281C4.60779 13.8141 4.58436 13.9078 4.60311 14.0813C4.64998 14.4844 4.97811 14.7516 5.37186 14.7047C5.62967 14.6766 5.82654 14.5359 5.94373 14.2828C6.12186 13.9031 6.47811 13.7016 6.82967 13.7859C7.29842 13.8938 7.61248 13.7859 7.78592 13.4531C7.99686 13.0547 7.79061 12.6141 7.31717 12.4453C7.01717 12.3422 6.53904 12.3188 6.20154 12.3984Z" />
<path d="M11.9812 14.3438C11.7656 14.4094 11.6297 14.5734 11.4281 15C10.9031 16.0969 9.58125 16.7391 8.48437 16.425C8.01562 16.2938 7.77656 16.2891 7.59843 16.4156C7.33593 16.5938 7.24218 16.7578 7.24687 17.0203C7.25625 17.6156 7.83281 17.8828 9.09375 17.8828C9.90468 17.8781 10.1719 17.8172 10.8516 17.4797C11.6953 17.0625 12.2391 16.5234 12.6656 15.6797C12.8719 15.2625 12.8953 15.1828 12.8812 14.9719C12.8531 14.6109 12.6375 14.3813 12.2812 14.325C12.1922 14.3156 12.0562 14.3203 11.9812 14.3438Z" />
</svg>
