<svg viewBox="0 0 24 24" fill="currentColor" xmlns="http://www.w3.org/2000/svg">
<path d="M17.0156 1.90312C16.6031 1.99219 15.839 2.37187 15.3937 2.71406C14.9765 3.02812 14.2687 3.72656 13.9406 4.14844C12.6797 5.76562 11.8172 7.85156 11.4515 10.1719C11.3344 10.9406 11.3344 13.0594 11.4515 13.8281C11.8172 16.1625 12.6656 18.2109 13.9453 19.8516C14.3297 20.3437 15.1734 21.1547 15.5953 21.4359C16.2844 21.8953 17.0625 22.1719 17.6578 22.1719C18.5953 22.1719 19.6031 21.6703 20.6109 20.7047C22.2562 19.1203 23.4375 16.6547 23.8687 13.9172C23.9578 13.3453 23.9719 13.0547 23.9719 12C23.9719 10.9453 23.9578 10.6547 23.8687 10.0828C23.4562 7.4625 22.3687 5.11406 20.8125 3.49687C20.2406 2.90625 19.6922 2.48906 19.1015 2.20312C18.3562 1.84219 17.7187 1.74844 17.0156 1.90312ZM18.0609 3.11719C18.6656 3.27187 19.3594 3.73594 19.9781 4.39687C20.2734 4.71094 20.8219 5.4 20.7937 5.42344C20.789 5.43281 20.4375 5.48437 20.0109 5.54062C19.3406 5.63437 19.0359 5.64375 17.6719 5.64375C16.3078 5.64375 16.0031 5.63437 15.3328 5.54062C14.9062 5.48437 14.5547 5.42812 14.55 5.42344C14.5172 5.39531 15.1265 4.64062 15.4406 4.32187C16.0547 3.68906 16.6828 3.27656 17.2594 3.12187C17.5828 3.03281 17.7375 3.03281 18.0609 3.11719ZM14.5453 6.65156C15.6656 6.82969 16.214 6.86719 17.7187 6.86719C19.2047 6.8625 19.875 6.81562 20.9531 6.63281C21.1734 6.59531 21.3797 6.5625 21.4125 6.5625C21.5015 6.5625 21.9 7.43437 22.1437 8.16094C22.5797 9.47344 22.7531 10.5562 22.7531 12C22.7531 13.4437 22.5797 14.5266 22.1437 15.8391C21.9422 16.4437 21.5062 17.4375 21.4453 17.4375C21.4265 17.4375 21.0515 17.3859 20.6109 17.3203C18.6375 17.0391 16.7484 17.0344 14.8828 17.3016C14.5219 17.3531 14.1422 17.4094 14.0344 17.4234L13.8469 17.4469L13.6219 16.9406C13.1578 15.8906 12.8015 14.6203 12.6469 13.4531C12.614 13.2094 12.5906 12.5531 12.5906 12C12.5906 10.9312 12.6328 10.4578 12.825 9.51562C13.0359 8.49375 13.739 6.5625 13.9078 6.5625C13.9406 6.5625 14.2265 6.60469 14.5453 6.65156ZM19.875 18.4453C20.6109 18.5344 20.7656 18.5625 20.7656 18.6094C20.7656 18.6703 20.2922 19.2703 19.9781 19.6031C19.139 20.4937 18.164 21.0187 17.5125 20.9297C16.7109 20.8266 15.6937 20.0906 14.8734 19.0312L14.5312 18.5859L14.6859 18.5531C14.8125 18.525 15.6844 18.4266 16.3828 18.3562C16.8375 18.3094 19.3219 18.375 19.875 18.4453Z" />
<path d="M17.5078 7.87969C17.2031 7.96407 17.0625 8.19376 17.0625 8.60626V8.85938H16.4203C15.7219 8.85938 15.5765 8.90157 15.4406 9.15001C15.3328 9.34219 15.3609 9.67969 15.4969 9.83907C15.6562 10.0313 15.8578 10.0781 16.514 10.0781H17.0625V10.7344V11.3906H16.4531C15.7875 11.3906 15.6515 11.4281 15.4734 11.6531C15.3375 11.8219 15.3375 12.1781 15.4734 12.3469C15.6515 12.5719 15.7875 12.6094 16.4531 12.6094H17.0625V13.2656V13.9219H16.514C15.8578 13.9219 15.6562 13.9688 15.4969 14.1609C15.3609 14.3203 15.3328 14.6578 15.4406 14.85C15.5765 15.0984 15.7219 15.1406 16.4109 15.1406H17.0531L17.0719 15.4688C17.0859 15.75 17.1047 15.8109 17.2265 15.9375C17.5359 16.2609 18.0047 16.1906 18.2156 15.7875C18.2531 15.7172 18.2812 15.5438 18.2812 15.3984V15.1406H18.9187C19.6172 15.1406 19.7484 15.1031 19.8937 14.8594C20.0719 14.55 19.9172 14.0953 19.5937 13.9828C19.5047 13.95 19.1719 13.9266 18.8578 13.9266L18.2812 13.9219V13.2656V12.6094H18.8906C19.5562 12.6094 19.6922 12.5719 19.8703 12.3469C20.0812 12.075 19.9687 11.6297 19.6406 11.4609C19.5422 11.4094 19.3406 11.3906 18.8906 11.3906H18.2812V10.7344V10.0781L18.8578 10.0734C19.1719 10.0734 19.5047 10.05 19.5937 10.0172C19.9172 9.90469 20.0719 9.45001 19.8937 9.14063C19.7484 8.89688 19.6172 8.85938 18.9187 8.85938H18.2812V8.58751C18.2812 8.08126 17.9297 7.75782 17.5078 7.87969Z" />
<path d="M7.31249 5.325C4.93593 5.64844 2.78437 6.99844 1.42968 9.02344C-0.571881 12.0094 -0.445319 15.9703 1.73437 18.825C3.73124 21.4406 7.09687 22.6734 10.2937 21.9609C11.1516 21.7688 12.1219 21.3938 12.6844 21.0375C13.0641 20.7984 13.125 20.3813 12.825 20.0813C12.5672 19.8234 12.3984 19.8234 11.9016 20.0813C11.1047 20.4984 10.1484 20.8031 9.40312 20.8828L9.09374 20.9156V17.6063V14.2969H9.54374C9.87656 14.2969 10.0266 14.2781 10.125 14.2219C10.4906 14.0016 10.5 13.4297 10.1391 13.1953C10.0453 13.1344 9.88593 13.1016 9.55312 13.0875L9.09374 13.0641V9.77344V6.48281L9.41249 6.525C9.58593 6.54844 9.98437 6.62813 10.3031 6.70781C10.9547 6.86719 11.0859 6.85781 11.2969 6.65156C11.5594 6.38438 11.5172 5.94375 11.2125 5.7375C11.0344 5.61563 10.0406 5.36719 9.44531 5.30156C8.87812 5.23125 7.91249 5.24531 7.31249 5.325ZM7.87499 9.80156V13.0781H6.84843H5.82187L5.78906 12.7594C5.64374 11.3484 5.04843 9.83906 4.17656 8.67188C4.03124 8.47969 3.88593 8.28281 3.85312 8.24063C3.80156 8.16563 3.83906 8.12344 4.20468 7.85625C4.88437 7.35 5.81249 6.90938 6.62812 6.69844C7.04062 6.59531 7.78593 6.47344 7.84218 6.50156C7.86093 6.51094 7.87499 7.99688 7.87499 9.80156ZM3.24374 9.45469C3.93281 10.4063 4.44843 11.7047 4.57031 12.7828L4.60312 13.0781H2.93437H1.26562V12.9469C1.26562 12.3844 1.61718 11.1984 2.02031 10.4109C2.29687 9.86719 2.87812 9.02344 2.94374 9.06563C2.96249 9.075 3.09843 9.25313 3.24374 9.45469ZM4.57031 14.5641C4.42968 15.7547 3.96562 16.9359 3.24374 17.9484L2.93437 18.3844L2.82187 18.2531C2.58281 17.9672 2.09531 17.1891 1.92187 16.8188C1.58437 16.0969 1.26562 14.9531 1.26562 14.4609V14.2969H2.93437H4.60312L4.57031 14.5641ZM7.86562 17.6203L7.87499 20.9203L7.53749 20.8828C6.74999 20.8078 5.59687 20.4188 4.84218 19.9781C4.52343 19.7906 3.79687 19.275 3.79687 19.2375C3.79687 19.2281 3.89531 19.0969 4.01718 18.9469C4.92656 17.8359 5.58749 16.2609 5.77499 14.7609L5.83124 14.2969L6.83906 14.3063L7.85156 14.3203L7.86562 17.6203Z" />
</svg>
